<svg xmlns="http://www.w3.org/2000/svg" viewBox="0 0 450 431.86"><defs><style>.cls-1{fill:#fff;stroke:#231f20;}.cls-1,.cls-3,.cls-5{stroke-miterlimit:10;}.cls-2,.cls-5{fill:none;}.cls-2{stroke:#0b783d;stroke-linejoin:round;stroke-width:40px;}.cls-3,.cls-4{fill:#17b24b;}.cls-3,.cls-5{stroke:#17b24b;}.cls-5{stroke-linecap:round;stroke-width:10px;}</style></defs><g id="Layer_2" data-name="Layer 2"><rect class="cls-1" x="32.56" y="30.47" width="387.21" height="369.19"/><rect class="cls-2" x="20" y="20" width="410" height="391.86" rx="80"/></g><g id="Layer_1" data-name="Layer 1"><path class="cls-3" d="M318.69,286.12a8.66,8.66,0,0,1,4.43-.12c4,.88,7.23,5.73,7.31,13.43s-6.56,13.38-15.08,10.88a12,12,0,0,1-5.53-3.39c.75-.91,1.49-1.83,2.2-2.77a8,8,0,0,0,4.33,2.76c5.57,1.61,9.49-2.39,9.93-7.51.53-5.73-1.67-9.36-4.62-10.11a7.66,7.66,0,0,0-3.8.06C318.13,288.27,318.4,287.19,318.69,286.12Z" transform="translate(-152.75 -63.52)"/><path class="cls-3" d="M298.76,284.1c6.58-5.31,11.27-5.17,13.59-3.36,2.5,2.11,3,7.53-.15,14.52-3.29,7.39-10.32,9.28-15.22,4.82C292,295.41,293.36,288.46,298.76,284.1Zm10.38,9.61c2.59-4.6,3-8.93,1.15-10.49s-5.65-.23-9.42,3.39c-2.79,2.7-5.36,7.72-1.84,11S306.94,297.65,309.14,293.71Z" transform="translate(-152.75 -63.52)"/><path class="cls-3" d="M292.53,283.55c-1.91,1.36-3.46,2.5-4.92,3.71-.57-1.05-1.1-2.12-1.6-3.21l3.06-2.15,0-.07c-2.22.2-5.09-1.17-6.14-4.79-.94-3.05,0-8.4,7.13-10.13l12.3-3.29c.13.79.29,1.56.48,2.33l-11.75,4.14c-3.27,1.11-5.84,3.32-4.77,6.84a4.21,4.21,0,0,0,5.38,2.69,6.77,6.77,0,0,0,1.72-.76l11.52-6.95c.34.71.7,1.41,1.09,2.08Z" transform="translate(-152.75 -63.52)"/><path class="cls-3" d="M292.24,259.3c5.09-.63,7.15-3,7.49-5.53a8.68,8.68,0,0,0-.27-4.07c.89,0,1.78,0,2.66.07a9.63,9.63,0,0,1,.42,4.5c-.43,3.78-4.29,6.88-10.57,8.11s-11.57-1.94-10.7-8.68c1.22-7.46,7.74-7.82,11.17-6.94a16.39,16.39,0,0,1,1.61.47A43.3,43.3,0,0,0,292.24,259.3Zm-1.53-9.6c-2.24-.4-6.19,0-6.83,4.42-.48,4,3.09,5.4,5.67,5.38A46.86,46.86,0,0,1,290.71,249.7Z" transform="translate(-152.75 -63.52)"/><path class="cls-3" d="M308.32,237.82a8.84,8.84,0,0,1-1.36,3.72c-2,3.19-6.57,4.51-12.46,2.94s-8.67-7.36-4.41-13.58a12.14,12.14,0,0,1,4.28-3.82c.5.77,1,1.52,1.54,2.26a8.27,8.27,0,0,0-3.44,3c-2.78,4.09-.66,7.73,3.14,9.12,4.26,1.57,7.68.63,9.2-1.68a7.47,7.47,0,0,0,1.16-3.15C306.76,237,307.54,237.4,308.32,237.82Z" transform="translate(-152.75 -63.52)"/><path class="cls-3" d="M298.16,215.94l3.4,4a44.59,44.59,0,0,1,5.19-3.12l1.35,2.09a41.92,41.92,0,0,0-4.9,3l6.4,7.53c1.49,1.73,2.73,2.37,4,1.54a6.58,6.58,0,0,0,1.27-1l1.46,2a6,6,0,0,1-1.68,1.58,3.74,3.74,0,0,1-3.11.62,9.2,9.2,0,0,1-4.19-2.75l-7.18-7.14c-.84.72-1.65,1.46-2.43,2.23l-2-1.69c.83-.81,1.68-1.59,2.58-2.35l-3.16-3.13A41.86,41.86,0,0,1,298.16,215.94Z" transform="translate(-152.75 -63.52)"/><path class="cls-3" d="M327.66,228.19c-.19-.68-.38-1.36-.58-2H327a7.75,7.75,0,0,1-4.37,3.56,5.7,5.7,0,0,1-6.75-2.77c-2.17-3.56.35-8,9.5-9.17l-.06-.34c-.17-1.31-1.28-3.9-6.37-2.89a10.81,10.81,0,0,0-5.46,2.93c-.6-.52-1.21-1-1.83-1.54a13.51,13.51,0,0,1,7.29-3.72c8.2-1.43,10.79,2.45,10.78,5.6.11,2.05.21,4.1.32,6.15a21.65,21.65,0,0,0,.5,3.91C329.54,228,328.59,228.05,327.66,228.19Zm-1.86-8.35c-4.49.42-8.63,2.48-7.15,5.58a3.16,3.16,0,0,0,3.94,1.9,5,5,0,0,0,3.64-3.63,2.73,2.73,0,0,0,0-1Z" transform="translate(-152.75 -63.52)"/><path class="cls-3" d="M340.44,203.82a2.11,2.11,0,0,1-2-2.47,2,2,0,0,1,2.46-2,2.13,2.13,0,0,1,1.94,2.4A2.26,2.26,0,0,1,340.44,203.82Z" transform="translate(-152.75 -63.52)"/><path class="cls-3" d="M354,175.75a9.08,9.08,0,0,1-2,3.61c-2.6,3-7,3.43-11.78.49s-6.2-9.3-1.8-14.61a10,10,0,0,1,4.14-3q.57,1.31,1.17,2.58a6.8,6.8,0,0,0-3.37,2.34c-2.94,3.53-1.68,7.61,1.4,9.85,3.44,2.51,6.73,2.23,8.59.13a7.43,7.43,0,0,0,1.61-3C352.69,174.63,353.36,175.19,354,175.75Z" transform="translate(-152.75 -63.52)"/><path class="cls-3" d="M363.67,159c2.15,7,.11,11.22-2.5,12.81-2.94,1.7-7.34.56-11.15-4.11-4-4.91-3.08-11,1.79-14C356.87,150.66,361.9,153.24,363.67,159Zm-11.35,6.67c2.42,3.44,5.61,5,7.7,3.74s2.47-4.91.86-9.05c-1.19-3.09-4.28-6.42-7.89-4.24S350.24,162.72,352.32,165.69Z" transform="translate(-152.75 -63.52)"/><path class="cls-3" d="M366.18,153.44c-.5-2-.95-3.63-1.48-5.19,1-.34,2.05-.66,3.09-.94.28,1.06.55,2.13.83,3.2l.07,0a7.14,7.14,0,0,1,5.81-5.14c2.8-.52,7.16.86,6.76,8l-.48,12.35c-.8,0-1.59.09-2.39.16q-.13-5.91-.26-11.83c0-3.3-1.24-6-4.52-5.42a5,5,0,0,0-3.89,4.7,6.16,6.16,0,0,0,.1,1.73q1.13,5.94,2.23,11.89c-.77.19-1.55.41-2.31.64Q368,160.51,366.18,153.44Z" transform="translate(-152.75 -63.52)"/><path class="cls-3" d="M427.65,146.79c1.2.78,2.37,1.59,3.52,2.44l-23.12,24.94c-.62-.49-1.25-1-1.9-1.41Q416.91,159.79,427.65,146.79Z" transform="translate(-152.75 -63.52)"/><path class="cls-3" d="M415.68,182.49l2.45-1.76-.05-.08c-2.05.32-4.24.09-5.43-1.31-1.67-2-.27-5.11,2.17-7.48,4-3.89,9.32-3.74,13.5,2.12l.42-.27c1.65-1,4.51-3.38,1.88-6.56a7.9,7.9,0,0,0-4.83-2.61c.52-.8,1-1.61,1.52-2.42a10.1,10.1,0,0,1,6.24,3.56c4.1,5.1.29,9.11-3.9,11.34l-7.87,4.39c-1.83,1-3.58,2.07-4.94,3C416.47,183.76,416.09,183.12,415.68,182.49Zm10.13-6.83c-1.87-2.94-5.2-5.2-8.67-2.19-2.11,1.8-2.37,3.43-1.54,4.43,1.15,1.4,3.45,1.29,5.44.59a7,7,0,0,0,1.26-.61Z" transform="translate(-152.75 -63.52)"/><path class="cls-3" d="M424.14,199.61c1.88-.24,3.32.53,3.4,1.89s-1.27,2.37-3.18,2.41-3.26-.72-3.31-1.95S422.31,199.85,424.14,199.61Z" transform="translate(-152.75 -63.52)"/><path class="cls-3" d="M421.71,224.29a29.94,29.94,0,0,0-.08-4.2c1.43,0,2.84,0,4.22.14,0,.87,0,1.73-.05,2.6h.1c1.35-1.39,4.58-2.65,8.55-1.9,3.39.57,7.58,3.35,5,8.56l-4.28,9.09c-.87-.35-1.77-.66-2.68-1l3.37-8.91c1-2.46.54-5-3.43-5.69-2.77-.48-5.26.66-6.16,2.17a3.09,3.09,0,0,0-.46,1.31l-1.23,9.4c-1-.14-2.11-.25-3.21-.32Q421.53,229.95,421.71,224.29Z" transform="translate(-152.75 -63.52)"/><path class="cls-3" d="M445.77,244.87c.48-.59,1-1.17,1.43-1.76l-.08-.06a6.38,6.38,0,0,1-5.31-.62,4.63,4.63,0,0,1-1.37-6.43c1.91-3.56,7.17-4.07,12.9.32l.26-.27c1-1,2.62-3.33-.89-5.63a10.28,10.28,0,0,0-5.39-1.55c.13-.71.24-1.41.34-2.12a13.18,13.18,0,0,1,7,2.13c5.47,3.67,3.54,7.45.87,9.82l-5,4.6a33.67,33.67,0,0,0-3.05,3.1C446.94,245.88,446.36,245.36,445.77,244.87Zm6.06-6.87c-2.66-2.24-6.64-3.74-8.5-.91-1.15,1.69-.64,3.09.51,3.86a4.74,4.74,0,0,0,5,0,4.14,4.14,0,0,0,.84-.64Z" transform="translate(-152.75 -63.52)"/><path class="cls-3" d="M472.33,238.56l-4.57,2.87c1.08,1.39,2.09,2.83,3,4.3l-2.35,1.2q-1.33-2.13-2.88-4.12L457,248.2c-2,1.25-2.77,2.35-2,3.55a5.24,5.24,0,0,0,1,1.16l-2.24,1.29a5.2,5.2,0,0,1-1.58-1.6,3,3,0,0,1-.38-2.93c.38-1.13,1.53-2.31,3.31-3.59l8.22-5.92c-.67-.75-1.35-1.49-2.06-2.2l2-1.6c.75.75,1.47,1.51,2.16,2.3l3.61-2.6C470.18,236.85,471.26,237.69,472.33,238.56Z" transform="translate(-152.75 -63.52)"/><path class="cls-3" d="M464.2,266.72q-3.1.34-5.45.72c-.13-.71-.29-1.41-.46-2.1l3.18-.68,0-.06c-1.77-.42-4.15-1.38-4.94-3.55-.68-1.91-.22-4.75,5.94-7.48l10.37-4.39c.58,1.08,1.13,2.17,1.65,3.28L464.31,256c-3.49,1.25-5.45,2.82-4.67,5,.57,1.62,2.53,2.46,4.25,2.68a7.24,7.24,0,0,0,1.9-.07l12.06-2.11c.34,1.18.65,2.37.92,3.57Z" transform="translate(-152.75 -63.52)"/><path class="cls-3" d="M473.45,271.19c2.41,0,4.48-.07,6.37-.22.15,1.07.27,2.14.36,3.22l-4.05-.06v.16a6.54,6.54,0,0,1,4.75,5.89,3.31,3.31,0,0,1-.14,1l-3.58-.56a4.92,4.92,0,0,0,.15-1.18c0-2.51-2.15-4.41-5-5a12.31,12.31,0,0,0-1.77-.23l-11-.57c0-.8-.1-1.6-.18-2.39Z" transform="translate(-152.75 -63.52)"/><path class="cls-3" d="M458,287.36l2.63.87,0-.09c-1.42-1.42-2.52-3.31-2.21-5.13.43-2.54,3.46-3.37,6.49-2.84,5,.8,7.84,5.22,6.23,12l.43.17c1.66.68,4.92,1.53,5.62-2.46a8.91,8.91,0,0,0-.93-5.41c.85-.07,1.71-.16,2.56-.25a11.49,11.49,0,0,1,1.07,7.09c-1.17,6.29-6.06,5.65-10.05,3.72l-7.58-3.54c-1.76-.82-3.49-1.56-4.92-2.06C457.63,288.76,457.84,288.06,458,287.36Zm10.57,3.86c.92-3.23.62-7.26-3.45-8.2-2.46-.6-3.75.2-4,1.47-.33,1.78,1.08,3.54,2.71,4.68a6.43,6.43,0,0,0,1.15.62Z" transform="translate(-152.75 -63.52)"/><path class="cls-3" d="M485,309.71c-.52,1.34-1.08,2.66-1.69,4L455.09,295c.36-.7.69-1.42,1-2.15Z" transform="translate(-152.75 -63.52)"/><path class="cls-3" d="M460.72,306.73c-4.49-3.66-7.51-3.44-9.18-1.6a7.92,7.92,0,0,0-2,3.72c-.76-.72-1.53-1.46-2.28-2.21a8.85,8.85,0,0,1,2.14-4.21c2.56-2.84,7.44-2.07,13.12,2.12s8.4,10.8,4.51,15.64c-4.51,5.28-10.3.57-12.87-3-.55-.73-.92-1.34-1.17-1.73A44.36,44.36,0,0,0,460.72,306.73Zm-3.59,9.2c1.73,2.18,5.3,4.94,7.94,1.8,2.31-2.88.08-6.86-2-9A47.87,47.87,0,0,1,457.13,315.93Z" transform="translate(-152.75 -63.52)"/><path class="cls-3" d="M446.4,309.39A63.53,63.53,0,0,1,447.54,326a46.73,46.73,0,0,1-.66,4.71l0,.09a51.34,51.34,0,0,0,9.36-5.81c.68,1,1.35,2,2,3a55.6,55.6,0,0,1-14.43,8.18c-.31-.91-.63-1.82-.94-2.72a62.58,62.58,0,0,0,1.61-16.89c-.09-1.56-.15-3-.25-4.42l-.05-.09a36.45,36.45,0,0,1-7.93,3.77l-1.25-3.45a33.86,33.86,0,0,0,9.85-5.12Z" transform="translate(-152.75 -63.52)"/><path class="cls-3" d="M424,314.26c.18,1.08.35,2.17.54,3.26h.11c.8-2.09,2.27-4,4.38-4.29,2.94-.44,5.45,2.53,6.64,6,2,5.71-.82,10.64-9.55,11.46l.05.54c.17,2.1,1.16,6.05,6.05,5.23a9,9,0,0,0,5.37-3.18c.56.9,1.14,1.79,1.73,2.68a11.54,11.54,0,0,1-7.15,4c-7.81,1.23-10.16-4.51-10.17-9.68-.09-3.26-.19-6.53-.29-9.79a58.92,58.92,0,0,0-.46-6.29C422.16,314.28,423.07,314.28,424,314.26Zm1.71,13.19c4.27-.17,8.41-2.1,7.09-6.9-.77-2.92-2.34-4-3.84-3.83-2.1.3-3.28,2.49-3.63,4.73a6.38,6.38,0,0,0-.05,1.51C425.39,324.46,425.54,326,425.68,327.45Z" transform="translate(-152.75 -63.52)"/><path class="cls-4" d="M380.15,278.16l-1,103.37" transform="translate(-152.75 -63.52)"/><path class="cls-5" d="M379.65,278.16c-11.95,36.11.2,60.58-1,123" transform="translate(-152.75 -63.52)"/><rect class="cls-3" x="173.89" y="326.59" width="99" height="17.42"/><ellipse class="cls-3" cx="223.39" cy="327.01" rx="49.5" ry="17"/><path class="cls-4" d="M358.19,403.21v14.61" transform="translate(-152.75 -63.52)"/><path class="cls-4" d="M353.19,403.21v14.61a5,5,0,0,0,10,0V403.21a5,5,0,0,0-10,0Z" transform="translate(-152.75 -63.52)"/><path class="cls-4" d="M396.1,403.21v14.61" transform="translate(-152.75 -63.52)"/><path class="cls-4" d="M391.1,403.21v14.61a5,5,0,1,0,10,0V403.21a5,5,0,1,0-10,0Z" transform="translate(-152.75 -63.52)"/></g></svg>