<svg id="Layer_1" data-name="Layer 1" xmlns="http://www.w3.org/2000/svg" viewBox="0 0 816.38 240.17"><defs><style>.cls-1{font-size:129.32px;fill:#007702;font-family:Montserrat-SemiBold, Montserrat;}.cls-1,.cls-2{font-weight:600;}.cls-2{font-size:190.5px;font-family:OpenSans-SemiboldItalic, Open Sans;font-style:italic;letter-spacing:0em;}.cls-2,.cls-4{fill:#9c3;}.cls-3,.cls-5{fill:#00b408;stroke-miterlimit:10;}.cls-3{stroke:#007702;stroke-width:4px;}.cls-5{stroke:#70bf44;}.cls-6{fill:#3c2415;}</style></defs><text class="cls-1" transform="translate(0 178.73) scale(0.85 1)">GREEN</text><text class="cls-1" transform="translate(496.71 179.34) scale(0.85 1)">MIND</text><text class="cls-2" transform="translate(416.84 189.49) rotate(-18.66) scale(1.08 1)">e</text><line class="cls-3" x1="618.89" y1="21.02" x2="618.89" y2="68.96"/><path class="cls-4" d="M727,306.6s5.54-21.81,30-10.53" transform="translate(-108.39 -255.66)"/><path class="cls-5" d="M726.89,306.27s18,13.63,30.08-10.38" transform="translate(-108.39 -255.66)"/><path class="cls-4" d="M750.4,266.83s.61,16.09-24.94,9.94" transform="translate(-108.39 -255.66)"/><path class="cls-5" d="M750.54,267.06s-20.15-8.36-25,9.83" transform="translate(-108.39 -255.66)"/><path class="cls-4" d="M727.13,292.31s4.71-14.07-31.2-9.13" transform="translate(-108.39 -255.66)"/><path class="cls-5" d="M727.38,292.11s-29.17,7-31.35-9" transform="translate(-108.39 -255.66)"/><path class="cls-6" d="M705.23,329.07c1.93-7.94,11.31-13.77,22.15-13.77s20.22,5.83,22.15,13.77" transform="translate(-108.39 -255.66)"/></svg>