<svg id="Layer_1" data-name="Layer 1" xmlns="http://www.w3.org/2000/svg" viewBox="0 0 305.24 319.63"><defs><style>.cls-1{fill:none;stroke:#0b783d;stroke-miterlimit:10;stroke-width:4px;}.cls-2{fill:#b5d334;}.cls-3{fill:#17b24b;}.cls-4{fill:#3c2415;}</style></defs><line class="cls-1" x1="156.74" y1="57.67" x2="156.74" y2="297.37"/><path class="cls-2" d="M428,338.49s27.69-109,150.14-52.67" transform="translate(-272.93 -131.22)"/><path class="cls-3" d="M427.73,336.87S517.57,405,578.12,284.94" transform="translate(-272.93 -131.22)"/><path class="cls-2" d="M552.39,139.66s3.08,80.43-124.66,49.67" transform="translate(-272.93 -131.22)"/><path class="cls-3" d="M553.1,140.8S452.35,99,428,190" transform="translate(-272.93 -131.22)"/><path class="cls-2" d="M429,267s23.56-70.35-156-45.62" transform="translate(-272.93 -131.22)"/><path class="cls-3" d="M430.18,266s-145.86,34.84-156.73-45.17" transform="translate(-272.93 -131.22)"/><path class="cls-4" d="M319.42,450.85C329.07,411.13,376,382,430.18,382S531.29,411.13,541,450.85" transform="translate(-272.93 -131.22)"/></svg>