<svg id="Layer_1" data-name="Layer 1" xmlns="http://www.w3.org/2000/svg" viewBox="0 0 450 431.86"><defs><style>.cls-1{fill:#fff;stroke:#231f20;}.cls-1,.cls-3{stroke-miterlimit:10;}.cls-2,.cls-3{fill:none;stroke:#0b783d;}.cls-2{stroke-linejoin:round;stroke-width:40px;}.cls-3{stroke-width:4px;}.cls-4{fill:#b5d334;}.cls-5{fill:#17b24b;}.cls-6{fill:#3c2415;}</style></defs><rect class="cls-1" x="32.56" y="30.47" width="387.21" height="369.19"/><rect class="cls-2" x="20" y="20" width="410" height="391.86" rx="80"/><line class="cls-3" x1="227.23" y1="113.68" x2="227.23" y2="353.38"/><path class="cls-4" d="M428,338.49s27.69-109,150.14-52.67" transform="translate(-202.44 -75.21)"/><path class="cls-5" d="M427.73,336.87S517.57,405,578.12,284.94" transform="translate(-202.44 -75.21)"/><path class="cls-4" d="M552.39,139.66s3.08,80.43-124.66,49.67" transform="translate(-202.44 -75.21)"/><path class="cls-5" d="M553.1,140.8S452.35,99,428,190" transform="translate(-202.44 -75.21)"/><path class="cls-4" d="M429,267s23.56-70.35-156-45.62" transform="translate(-202.44 -75.21)"/><path class="cls-5" d="M430.18,266s-145.86,34.84-156.73-45.17" transform="translate(-202.44 -75.21)"/><path class="cls-6" d="M319.42,450.85C329.07,411.13,376,382,430.18,382S531.29,411.13,541,450.85" transform="translate(-202.44 -75.21)"/></svg>